<?xml version="1.0" encoding="UTF-8"?>
<!DOCTYPE svg PUBLIC "-//W3C//DTD SVG 1.1//EN" "http://www.w3.org/Graphics/SVG/1.1/DTD/svg11.dtd">
<!-- Creator: CorelDRAW 2021 (64-Bit) -->
<svg xmlns="http://www.w3.org/2000/svg" xml:space="preserve" width="18.8203mm" height="2.8779mm" version="1.1" style="shape-rendering:geometricPrecision; text-rendering:geometricPrecision; image-rendering:optimizeQuality; fill-rule:evenodd; clip-rule:evenodd"
viewBox="0 0 193.16 29.54"
 xmlns:xlink="http://www.w3.org/1999/xlink"
 xmlns:xodm="http://www.corel.com/coreldraw/odm/2003">
 <defs>
  <style type="text/css">
   <![CDATA[
    .fil1 {fill:black}
    .fil0 {fill:#F37335}
   ]]>
  </style>
 </defs>
 <g id="Layer_x0020_1">
  <metadata id="CorelCorpID_0Corel-Layer"/>
  <g id="_2600672401952">
   <path class="fil0" d="M12.9 0c7.12,0 12.89,5.87 12.89,13.11 0,3.51 -1.36,6.7 -3.57,9.05l-4 0c2.71,-1.84 4.5,-5.05 4.5,-8.7 0,-5.71 -4.4,-10.35 -9.83,-10.35 -5.43,0 -9.83,4.63 -9.83,10.35 0,3.65 1.79,6.85 4.5,8.7l-4 0c-2.21,-2.35 -3.57,-5.54 -3.57,-9.05 0,-7.24 5.77,-13.11 12.9,-13.11z"/>
   <path class="fil1" d="M11.51 22.16c-0.95,-1.01 -1.74,-2.18 -2.34,-3.46 0.99,-0.1 1.95,-0.32 2.86,-0.64 0.79,1.67 2,3.09 3.48,4.09l-4 0z"/>
   <path class="fil0" d="M3.38 16.36l2.44 -1.19c1.22,1.86 5.24,2.87 6.85,2.13 0.83,0.68 1.93,-1.05 1.34,-1.9 2.14,-1.92 2.68,-4.04 3.42,-6.62l-0.17 -0.09c-0.32,1.94 -2.28,4.13 -4.33,4.19l0.26 -2.87 -0.26 -0.3 -2.4 2.04c-0.98,-1.29 -1.97,-2.33 -3.24,-2.9 0,0 0.08,-1.03 -0.2,-1.42 -0.28,-0.38 -1.12,-0.06 -1.22,-0.09 -0.07,-0.02 -0.45,-0.29 -0.67,-0.44 -1.38,1.78 -2.21,4.06 -2.21,6.54 0,1.01 0.14,1.98 0.39,2.9z"/>
  </g>
  <g id="_2600672402096">
   <path class="fil0" d="M181.71 14.23c0,-3.21 3.69,-4.75 5.82,-2.69 2.12,2.05 1,6.18 -2.45,6.18 -1,0 -1.81,-0.51 -2.33,-1.05 -0.59,-0.61 -1.05,-1.62 -1.05,-2.45zm-4.46 -0.24c0,4.63 3.58,8.2 7.47,8.2 2.8,0 2.2,-0.34 3.86,-0.72 0,3.04 -3.08,4.38 -5.21,3.04 -0.87,-0.55 -0.96,-0.85 -1.42,-1.72 -0.81,0.07 -3.46,1.38 -4.22,1.45 0.15,0.65 0.7,1.6 1.07,2.07 0.6,0.76 0.81,0.96 1.56,1.58 1.14,0.94 3,1.66 4.97,1.66 2.63,0 4.3,-1.2 5.64,-2.56 1.52,-1.54 2.2,-3.7 2.2,-6l0 -14.35c0,-0.28 -0.08,-0.36 -0.36,-0.36l-3.86 0c-0.4,0 -0.35,0.22 -0.36,0.6 -5.15,-2.47 -11.33,1.31 -11.33,7.11z"/>
   <path class="fil0" d="M34.02 22.3l4.46 0 0 -8.32c0,-4.15 5.43,-5.04 5.43,0.84l0 7.47 4.46 0 0 -8.2c0,-4.31 5.42,-5.33 5.42,0.96l0 7.23 4.46 0 0 -8.08c0,-4.18 -3.03,-8.08 -6.87,-8.08 -2.16,0 -4.21,0.71 -5.18,2.17 -1.2,-0.8 -2.14,-2.17 -4.7,-2.17l-7.47 0 0 16.15z"/>
   <path class="fil0" d="M69.35 17.72l-0.6 0c-1.46,0 -3.01,-1.66 -3.01,-3.13l0 -0.6c0,-4.33 6.87,-4.47 6.87,0.24 0,1.81 -1.43,3.5 -3.25,3.5zm3.25 3.74l0 0.6 4.46 0 0 -15.67 -4.46 0 0 0.72c-4.83,-3.24 -13.01,1.82 -11.19,9.02 0.6,2.36 1.98,4.01 3.88,5.16 0.4,0.24 1.15,0.53 1.62,0.67 1.25,0.37 2.74,0.42 4.03,0.13 0.78,-0.18 1.07,-0.32 1.66,-0.63z"/>
   <path class="fil0" d="M167.24 17.72l-0.6 0c-1.46,0 -3.01,-1.66 -3.01,-3.13l0 -0.6c0,-4.33 6.87,-4.47 6.87,0.24 0,1.81 -1.43,3.5 -3.25,3.5zm3.25 3.74l0 0.6 4.46 0 0 -15.67 -4.46 0 0 0.72c-4.83,-3.24 -13.01,1.82 -11.19,9.02 0.6,2.36 1.98,4.01 3.88,5.16 1.04,0.63 2.36,0.87 3.59,1 0.4,0.04 1.76,-0.13 2.06,-0.2 0.78,-0.18 1.07,-0.32 1.66,-0.63z"/>
   <path class="fil0" d="M116.85 12.54l-6.03 0c0.28,-1.06 1.74,-1.87 3.01,-1.87 1.46,0 2.47,0.84 3.01,1.87zm-10.97 1.45c0,3.38 1.72,6.21 4.62,7.56 3.15,1.46 8.53,0.52 9.85,-2.98l-3.86 -2.05c-1.91,2.19 -4.59,1.53 -5.91,-0.96l10.13 0c1.11,0.02 1.08,0.11 1.08,-0.85 0,-2.62 -0.87,-4.68 -2.2,-6 -2.54,-2.5 -5.49,-3.28 -8.95,-1.89 -0.72,0.29 -1.22,0.65 -1.78,1.11 -1.06,0.87 -1.57,1.52 -2.22,2.84 -0.44,0.87 -0.76,1.97 -0.76,3.22z"/>
   <path class="fil0" d="M91.41 22.06l4.46 0 0 -4.34 3.08 3.79c0.6,0.8 0.67,0.55 2.83,0.55 1.17,0 2.33,0 3.5,0l-6.75 -7.84c0.2,-0.29 0.5,-0.63 0.74,-0.95 0.67,-0.9 5.17,-6.57 5.29,-7.01l-5.55 0c-0.23,0.44 -0.45,0.67 -0.74,1.07l-2.39 3.27 0 -8.92 -4.46 0 0 20.37z"/>
   <path class="fil0" d="M125.17 6.27l-1.93 0 0 4.46 1.93 0 0 11.33 4.34 0 0 -11.33c1.37,0 2.05,0.19 2.05,-0.36l0 -3.74c0,-0.56 -0.68,-0.36 -2.05,-0.36l0 -4.58 -4.34 0 0 4.58z"/>
   <path class="fil0" d="M80.2 6.63l0 15.43 4.46 0 0 -7.96c0,-1.77 1.24,-3.38 3.01,-3.38l2.17 0 0 -4.1c0,-0.51 -0.46,-0.36 -1.57,-0.36 -1.42,0 -2.69,0.23 -3.62,0.72l0 -0.72 -4.1 0c-0.28,0 -0.36,0.08 -0.36,0.36z"/>
   <polygon class="fil0" points="134.57,22.06 139.03,22.06 139.03,1.69 134.57,1.69 "/>
   <path class="fil0" d="M152.39 12.54l-6.03 0c0.28,-1.06 1.74,-1.87 3.01,-1.87 1.46,0 2.47,0.84 3.01,1.87zm-10.97 1.45c0,3.38 1.72,6.21 4.62,7.56 3.15,1.46 8.53,0.52 9.85,-2.98l-3.86 -2.05c-1.91,2.19 -4.59,1.53 -5.91,-0.96l10.13 0c1.11,0.02 1.08,0.11 1.08,-0.85 0,-2.62 -0.87,-4.68 -2.2,-6 -2.54,-2.5 -5.49,-3.28 -8.95,-1.89 -0.72,0.29 -1.22,0.65 -1.78,1.11 -1.06,0.87 -1.57,1.52 -2.22,2.84 -0.44,0.87 -0.76,1.97 -0.76,3.22z"/>
  </g>
 </g>
</svg>
